<?xml version="1.0" encoding="UTF-8"?>
<svg id="Layer_2" data-name="Layer 2" xmlns="http://www.w3.org/2000/svg" viewBox="0 0 449.69 449.7">
  <defs>
    <style>
      .cls-1 {
        fill: #231f20;
        fill-rule: evenodd;
      }
    </style>
  </defs>
  <g id="Layer_1-2" data-name="Layer 1">
    <g>
      <path class="cls-1" d="M225.19,173.45h-.69c-28.1,0-51.4,23.3-51.4,51.4s23.3,52.08,51.4,52.08h.69c28.1,0,51.4-23.3,51.4-52.08s-23.3-51.4-51.4-51.4Z"/>
      <path class="cls-1" d="M290.29,106.29H159.4c-29.47,0-53.45,23.99-53.45,53.45v130.21c0,29.47,23.99,53.45,53.45,53.45h130.89c29.47,0,53.45-23.99,53.45-53.45V159.74c0-29.47-23.99-53.45-53.45-53.45Zm-65.1,196.68h-.69c-42.49,0-77.44-34.95-77.44-78.13s34.95-78.13,77.44-78.13h.69c42.49,0,78.13,35.64,78.13,78.13s-35.64,78.13-78.13,78.13Zm76.76-138.43c-9.59,0-16.45-7.54-16.45-16.45s6.85-16.45,16.45-16.45c8.91,0,16.45,7.54,16.45,16.45s-7.54,16.45-16.45,16.45Z"/>
      <path class="cls-1" d="M224.85,0C100.67,0,0,100.67,0,224.85s100.67,224.85,224.85,224.85,224.85-100.67,224.85-224.85S349.03,0,224.85,0Zm143.57,290.64c0,42.49-34.95,77.44-77.44,77.44H158.71c-42.49,0-77.44-34.95-77.44-77.44V159.06c0-42.49,34.95-77.44,77.44-77.44h132.27c42.49,0,77.44,34.95,77.44,77.44v131.58Z"/>
    </g>
  </g>
</svg>