<?xml version="1.0" encoding="UTF-8"?>
<svg id="Layer_2" data-name="Layer 2" xmlns="http://www.w3.org/2000/svg" viewBox="0 0 449.69 449.69">
  <defs>
    <style>
      .cls-1 {
        fill: #231f20;
        fill-rule: evenodd;
      }
    </style>
  </defs>
  <g id="Layer_1-2" data-name="Layer 1">
    <path class="cls-1" d="M224.85,0C100.67,0,0,100.67,0,224.85s100.67,224.85,224.85,224.85,224.85-100.67,224.85-224.85S349.03,0,224.85,0Zm-74.42,349.75h-50.64V179.71h50.64v170.04Zm-25.63-195.04c-16.88,0-30.01-13.75-30.01-30.63s13.13-30.63,30.01-30.63,30.63,13.75,30.63,30.63-13.75,30.63-30.63,30.63Zm225.05,106.27v88.77h-50.01v-91.9c-.62-19.38-13.75-34.38-33.13-34.38s-35.63,15-36.26,34.38v91.9h-50.01V179.71h50.01v23.76c10.63-15.63,28.13-25.63,48.14-25.63h13.75c31.88,0,57.51,26.26,57.51,57.51v25.63Z"/>
  </g>
</svg>